<?xml version="1.0" encoding="utf-8"?>
<!-- Generator: Adobe Illustrator 16.0.4, SVG Export Plug-In . SVG Version: 6.00 Build 0)  -->
<!DOCTYPE svg PUBLIC "-//W3C//DTD SVG 1.1//EN" "http://www.w3.org/Graphics/SVG/1.1/DTD/svg11.dtd">
<svg version="1.1" id="Layer_1" xmlns="http://www.w3.org/2000/svg" xmlns:xlink="http://www.w3.org/1999/xlink" x="0px" y="0px"
	 width="960px" height="560px" viewBox="0 0 960 560" enable-background="new 0 0 960 560" xml:space="preserve">
<text transform="matrix(1 0 0 1 363.0381 338.0156)" font-family="'Pacifico-Regular'" font-size="87.9852">magia</text>
<g>
	<g id="Hzo12Q.tif">
		<g>
			<g>
				<path fill-rule="evenodd" clip-rule="evenodd" fill="#010101" d="M550.023,206.85c-1.002-0.027-1.963-0.321-2.936-0.518
					c-10.566-2.148-21.129-4.312-31.693-6.472c-5.175-1.058-10.351-2.115-15.525-3.174c-0.148-0.03-0.328-0.004-0.414-0.222
					c3.056-0.626,6.107-1.253,9.16-1.876c8.534-1.743,17.068-3.484,25.604-5.226c5.04-1.028,10.08-2.056,15.121-3.082
					c0.225-0.046,0.447-0.147,0.684-0.059C550.023,193.099,550.023,199.975,550.023,206.85z"/>
				<path fill-rule="evenodd" clip-rule="evenodd" fill="#010101" d="M489.208,125.407c-0.054,1.201-0.403,2.35-0.641,3.517
					c-2.388,11.745-4.792,23.485-7.189,35.228c-0.758,3.708-1.51,7.417-2.272,11.124c-0.041,0.198,0,0.453-0.3,0.593
					c-0.316-1.538-0.632-3.062-0.944-4.587c-2.244-10.989-4.486-21.979-6.73-32.967c-0.84-4.114-1.682-8.228-2.518-12.342
					c-0.037-0.183-0.139-0.371-0.033-0.565C475.456,125.407,482.332,125.407,489.208,125.407z"/>
				<path fill-rule="evenodd" clip-rule="evenodd" fill="#010101" d="M492.043,209.702c0.214-0.071,0.32,0.115,0.457,0.205
					c12.568,8.301,25.131,16.609,37.704,24.903c0.438,0.289,0.54,0.434,0.11,0.86c-4.124,4.088-8.229,8.195-12.319,12.314
					c-0.368,0.371-0.501,0.354-0.787-0.077c-8.292-12.574-16.599-25.139-24.899-37.707c-0.102-0.155-0.287-0.282-0.252-0.51
					L492.043,209.702z"/>
				<path fill-rule="evenodd" clip-rule="evenodd" fill="#010101" d="M465.682,183.423c-1.908-1.26-3.816-2.521-5.723-3.782
					c-10.786-7.129-21.572-14.258-32.357-21.388c-0.581-0.383-0.58-0.385-0.087-0.878c4.092-4.091,8.188-8.179,12.268-12.281
					c0.338-0.339,0.481-0.418,0.791,0.051c8.3,12.591,16.616,25.171,24.93,37.753c0.095,0.143,0.179,0.292,0.267,0.439
					C465.74,183.366,465.711,183.395,465.682,183.423z"/>
				<path fill-rule="evenodd" clip-rule="evenodd" fill="#010101" d="M492.014,183.333c0.111-0.178,0.221-0.358,0.336-0.533
					c8.281-12.532,16.564-25.063,24.836-37.602c0.279-0.423,0.408-0.525,0.823-0.107c4.103,4.137,8.225,8.253,12.355,12.361
					c0.341,0.339,0.341,0.474-0.072,0.746c-12.653,8.348-25.3,16.708-37.946,25.066c-0.08,0.053-0.165,0.098-0.248,0.147
					C492.07,183.385,492.041,183.359,492.014,183.333z"/>
				<path fill-rule="evenodd" clip-rule="evenodd" fill="#010101" d="M465.744,209.702c0.003-0.028,0.006-0.055,0.009-0.083
					c0.021,0.013,0.041,0.026,0.062,0.039c-0.027,0.011-0.056,0.021-0.084,0.032L465.744,209.702z"/>
				<path fill-rule="evenodd" clip-rule="evenodd" fill="#010101" d="M492.057,209.69c-0.027-0.01-0.056-0.021-0.084-0.031
					c0.021-0.014,0.041-0.027,0.062-0.041c0.003,0.028,0.007,0.056,0.009,0.083L492.057,209.69z"/>
			</g>
		</g>
	</g>
	<g>
		<g>
			<g>
				<path d="M405.339,268.013c21.437-29.774,51.305-51.977,74.567-80.177c-0.854-0.354-1.707-0.707-2.561-1.061
					c0.277,7.117,0.37,13.888,3.844,20.29c0.078-0.605,0.156-1.211,0.234-1.817c-25.467,20.048-47.378,44.242-68.067,69.074
					c-1.229,1.475,0.881,3.609,2.121,2.121c20.689-24.832,42.6-49.026,68.067-69.074c0.533-0.419,0.528-1.277,0.234-1.817
					c-3.203-5.905-3.179-12.244-3.434-18.776c-0.046-1.193-1.673-2.137-2.561-1.061c-23.431,28.404-53.44,50.789-75.037,80.784
					C401.615,268.072,404.22,269.567,405.339,268.013L405.339,268.013z"/>
			</g>
		</g>
		<g>
			<g>
				<path d="M472.639,213.289c-4.322-1.776-6.591-5.83-6.683-10.388c-0.039-1.932-3.039-1.936-3,0
					c0.122,6.021,3.285,10.979,8.885,13.28C473.631,216.917,474.403,214.014,472.639,213.289L472.639,213.289z"/>
			</g>
		</g>
		<g>
			<g>
				<path d="M403.525,269.326c3.876,1.164,7.313,4.013,9.832,7.117c1.219,1.503,3.329-0.633,2.121-2.121
					c-2.838-3.499-6.803-6.583-11.155-7.889C402.465,265.876,401.677,268.771,403.525,269.326L403.525,269.326z"/>
			</g>
		</g>
		<g>
			<g>
				<path d="M439.053,231.696c-1.239,2.253-2.493,5.125-4.751,6.529c2.28,2.28,4.561,4.561,6.841,6.841
					c1.568-3.202,3.542-6.08,6.412-8.268c-2.02-2.618-4.039-5.235-6.059-7.853c-7.257,9.386-15.578,17.868-23.052,27.075
					c2.786,1.622,5.571,3.243,8.357,4.865c1.835-6.029,6.415-11.106,10.508-15.736c4.555-5.153,9.266-10.282,14.599-14.636
					c4.998-4.081-2.122-11.112-7.071-7.071c-6.109,4.988-11.465,10.984-16.615,16.944c-4.568,5.286-9.004,11.076-11.063,17.842
					c-1.39,4.566,5.129,8.841,8.357,4.865c7.473-9.207,15.794-17.689,23.052-27.075c3.125-4.042-1.122-11.615-6.059-7.853
					c-4.262,3.248-7.628,7.014-10,11.855c-2.086,4.261,2.307,9.661,6.841,6.841c3.853-2.396,6.197-6.22,8.339-10.117
					C450.795,231.089,442.159,226.044,439.053,231.696L439.053,231.696z"/>
			</g>
		</g>
		<g>
			<g>
				<path d="M422.468,247.049c-3.296,4.56-6.04,11.827-11.238,14.525c2.508,1.439,5.016,2.878,7.523,4.317
					c0.04-2.754,4.913-5.984,6.644-7.897c4.314-4.769-2.736-11.863-7.071-7.071c-4.02,4.444-9.477,8.404-9.573,14.968
					c-0.058,3.949,4.247,6.019,7.523,4.317c6.963-3.615,10.433-12.037,14.826-18.113c1.6-2.213,0.386-5.564-1.794-6.841
					C426.785,243.776,424.061,244.845,422.468,247.049L422.468,247.049z"/>
			</g>
		</g>
		<g>
			<g>
				<path d="M425.699,255.614c0.185-0.488,0.115-0.332-0.209,0.469c0.104-0.234,0.23-0.457,0.356-0.68
					c0.085-0.146,0.176-0.289,0.271-0.428c0.532-0.809-0.793,0.948-0.158,0.216c0.281-0.324,0.604-0.608,0.933-0.881
					c-1.268,1.053-0.04,0.099,0.331-0.11c2.37-1.339,3.156-4.516,1.794-6.841c-1.391-2.375-4.468-3.135-6.841-1.794
					c-2.976,1.682-4.945,4.221-6.12,7.392c-0.948,2.558,1.036,5.475,3.492,6.15C422.348,259.876,424.753,258.167,425.699,255.614
					L425.699,255.614z"/>
			</g>
		</g>
		<g>
			<g>
				<path d="M447.563,237.871c3.342-3.177,5.41-7.234,8.252-10.807c2.922-3.672,6.758-6.415,9.596-10.212
					c3.865-5.171-4.823-10.147-8.635-5.047c-2.537,3.395-6.152,5.825-8.794,9.146c-2.577,3.239-4.475,6.982-7.49,9.849
					C435.81,235.25,442.893,242.311,447.563,237.871L447.563,237.871z"/>
			</g>
		</g>
		<g>
			<g>
				<path d="M456.346,230.281c3.102-3.441,5.737-7.286,8.979-10.602c4.509-4.613-2.558-11.688-7.071-7.071
					c-3.242,3.316-5.876,7.161-8.979,10.602c-1.823,2.022-2,5.07,0,7.071C451.127,232.132,454.521,232.306,456.346,230.281
					L456.346,230.281z"/>
			</g>
		</g>
		<g>
			<g>
				<path d="M409.225,265.238c1.935,0,1.935-3,0-3S407.291,265.238,409.225,265.238L409.225,265.238z"/>
			</g>
		</g>
		<g>
			<g>
				<path d="M407.696,263.902c-0.01,0.573-0.221,1.01-0.528,1.484c0.684-0.18,1.369-0.359,2.052-0.539
					c0.035,0.041,0.069,0.082,0.104,0.123c-0.452-0.807-1.719-1.027-2.356-0.304c-1.469,1.668-0.292,3.254,1.345,4.124
					c0.564,0.3,3.982,1.545,3.86,2.263c0.914-0.119,1.828-0.239,2.742-0.358c-0.31-0.49-0.46-0.885-0.544-1.458
					c-0.279-1.908-3.17-1.094-2.893,0.798c0.119,0.813,0.409,1.481,0.846,2.174c0.632,1.001,2.511,1.003,2.742-0.358
					c0.343-2.02-0.875-3.339-2.521-4.307c-0.736-0.433-1.53-0.767-2.299-1.136c-0.331-0.159-0.653-0.329-0.967-0.519
					c-0.611-0.369,0.466,0.154-0.189,0.897c-0.785-0.101-1.57-0.202-2.356-0.304c0.252,0.45,0.521,0.708,0.973,0.955
					c0.744,0.404,1.597,0.163,2.052-0.539c0.59-0.911,0.918-1.911,0.938-2.998C410.73,261.967,407.73,261.97,407.696,263.902
					L407.696,263.902z"/>
			</g>
		</g>
		<g>
			<g>
				<path d="M406.262,268.609c1.935,0,1.935-3,0-3S404.327,268.609,406.262,268.609L406.262,268.609z"/>
			</g>
		</g>
		<g>
			<g>
				<path d="M416.62,272.633c0.348-1.038,0.801-2.023,1.442-2.916c0.478-0.665,0.117-1.668-0.538-2.052
					c-0.756-0.442-1.577-0.125-2.053,0.539c-0.785,1.093-1.318,2.361-1.744,3.631c-0.26,0.775,0.292,1.638,1.047,1.845
					C415.596,273.907,416.36,273.408,416.62,272.633L416.62,272.633z"/>
			</g>
		</g>
		<g>
			<g>
				<path d="M461.443,210.856c0.588-0.929,1.097-1.817,1.958-2.525c-0.854-0.354-1.707-0.707-2.561-1.061
					c0.093,2.055,0.35,3.879,1.878,5.376c0.649,0.637,1.925,0.583,2.356-0.304c0.47-0.967,0.803-1.771,0.745-2.861
					c-0.089-1.675-2.458-2.062-2.946-0.399c-0.874,2.977,1.735,3.917,2.578,6.33c0.295,0.846,0.991,1.172,1.845,1.047
					c0.808-0.118,1.418-0.322,2.145-0.683c-0.605-0.786-1.211-1.571-1.817-2.356c-1.331,1.053-2.112,2.397-2.664,3.983
					c-0.638,1.832,2.261,2.612,2.893,0.798c0.39-1.12,0.966-1.926,1.893-2.66c1.408-1.115-0.382-3.069-1.817-2.356
					c-0.455,0.217-0.931,0.345-1.429,0.381c0.615,0.349,1.23,0.698,1.845,1.047c-0.481-1.378-2.98-3.363-2.578-4.734
					c-0.982-0.133-1.964-0.266-2.946-0.399c0.037,0.493-0.075,0.942-0.335,1.348c0.786-0.102,1.571-0.203,2.356-0.304
					c-0.93-0.911-0.944-2.031-0.999-3.255c-0.062-1.38-1.555-1.889-2.561-1.061c-1.049,0.864-1.708,1.997-2.427,3.133
					C457.814,210.982,460.412,212.486,461.443,210.856L461.443,210.856z"/>
			</g>
		</g>
	</g>
</g>
</svg>
